<svg xmlns="http://www.w3.org/2000/svg" xmlns:xlink="http://www.w3.org/1999/xlink" width="128" zoomAndPan="magnify" viewBox="0 0 96 103.92" height="128" preserveAspectRatio="xMidYMid meet" version="1.0"><defs><clipPath id="e091a36699"><path d="M 0.0351562 0 L 95.960938 0 L 95.960938 95.925781 L 0.0351562 95.925781 Z M 0.0351562 0 " clip-rule="nonzero"/></clipPath><clipPath id="88cb662586"><path d="M 3.234375 2.898438 L 92.765625 2.898438 L 92.765625 93.128906 L 3.234375 93.128906 Z M 3.234375 2.898438 " clip-rule="nonzero"/></clipPath><clipPath id="7fa39e9b54"><path d="M 31.214844 2.898438 L 64.785156 2.898438 C 72.207031 2.898438 79.324219 5.84375 84.570312 11.09375 C 89.816406 16.339844 92.765625 23.457031 92.765625 30.875 L 92.765625 65.050781 C 92.765625 72.46875 89.816406 79.585938 84.570312 84.832031 C 79.324219 90.082031 72.207031 93.027344 64.785156 93.027344 L 31.214844 93.027344 C 23.792969 93.027344 16.675781 90.082031 11.429688 84.832031 C 6.183594 79.585938 3.234375 72.46875 3.234375 65.050781 L 3.234375 30.875 C 3.234375 23.457031 6.183594 16.339844 11.429688 11.09375 C 16.675781 5.84375 23.792969 2.898438 31.214844 2.898438 Z M 31.214844 2.898438 " clip-rule="nonzero"/></clipPath><clipPath id="4768dabe9a"><path d="M 0.234375 0.898438 L 89.765625 0.898438 L 89.765625 91.046875 L 0.234375 91.046875 Z M 0.234375 0.898438 " clip-rule="nonzero"/></clipPath><clipPath id="185f191ee1"><path d="M 28.214844 0.898438 L 61.785156 0.898438 C 69.207031 0.898438 76.324219 3.84375 81.570312 9.09375 C 86.816406 14.339844 89.765625 21.457031 89.765625 28.875 L 89.765625 63.050781 C 89.765625 70.46875 86.816406 77.585938 81.570312 82.832031 C 76.324219 88.082031 69.207031 91.027344 61.785156 91.027344 L 28.214844 91.027344 C 20.792969 91.027344 13.675781 88.082031 8.429688 82.832031 C 3.183594 77.585938 0.234375 70.46875 0.234375 63.050781 L 0.234375 28.875 C 0.234375 21.457031 3.183594 14.339844 8.429688 9.09375 C 13.675781 3.84375 20.792969 0.898438 28.214844 0.898438 Z M 28.214844 0.898438 " clip-rule="nonzero"/></clipPath><clipPath id="85d4a37a16"><rect x="0" width="90" y="0" height="92"/></clipPath><clipPath id="d350426efb"><path d="M 16.289062 25.6875 L 79.992188 25.6875 L 79.992188 69.902344 L 16.289062 69.902344 Z M 16.289062 25.6875 " clip-rule="nonzero"/></clipPath></defs><g clip-path="url(#e091a36699)"><path fill="#ffffff" d="M 0.0351562 0 L 95.964844 0 L 95.964844 95.925781 L 0.0351562 95.925781 Z M 0.0351562 0 " fill-opacity="1" fill-rule="nonzero"/><path fill="#ffffff" d="M 0.0351562 0 L 95.964844 0 L 95.964844 95.925781 L 0.0351562 95.925781 Z M 0.0351562 0 " fill-opacity="1" fill-rule="nonzero"/></g><g clip-path="url(#88cb662586)"><g clip-path="url(#7fa39e9b54)"><g transform="matrix(1, 0, 0, 1, 3, 2)"><g clip-path="url(#85d4a37a16)"><g clip-path="url(#4768dabe9a)"><g clip-path="url(#185f191ee1)"><path fill="#a80414" d="M 0.234375 0.898438 L 89.765625 0.898438 L 89.765625 91.128906 L 0.234375 91.128906 Z M 0.234375 0.898438 " fill-opacity="1" fill-rule="nonzero"/></g></g></g></g></g></g><g clip-path="url(#d350426efb)"><path fill="#ffefe3" d="M 71.285156 25.707031 L 24.714844 25.707031 C 20.070312 25.707031 16.289062 29.488281 16.289062 34.132812 L 16.289062 61.792969 C 16.289062 66.4375 20.070312 70.214844 24.714844 70.214844 L 71.285156 70.214844 C 75.929688 70.214844 79.710938 66.4375 79.710938 61.792969 L 79.710938 34.132812 C 79.710938 29.488281 75.929688 25.707031 71.285156 25.707031 Z M 70.417969 30.9375 L 49.984375 47.101562 C 48.816406 48.023438 47.183594 48.023438 46.019531 47.101562 L 25.582031 30.9375 Z M 71.285156 64.988281 L 24.714844 64.988281 C 22.953125 64.988281 21.519531 63.554688 21.519531 61.792969 L 21.519531 34.390625 L 42.773438 51.203125 C 44.3125 52.417969 46.15625 53.027344 48 53.027344 C 49.84375 53.027344 51.6875 52.417969 53.226562 51.203125 L 74.480469 34.390625 L 74.480469 61.792969 C 74.480469 63.554688 73.046875 64.988281 71.285156 64.988281 Z M 71.285156 64.988281 " fill-opacity="1" fill-rule="nonzero"/></g></svg>