<svg xmlns="http://www.w3.org/2000/svg" xmlns:xlink="http://www.w3.org/1999/xlink" width="128" zoomAndPan="magnify" viewBox="0 0 96 103.92" height="128" preserveAspectRatio="xMidYMid meet" version="1.0"><defs><clipPath id="d6b7ae429b"><path d="M 0.0351562 14.269531 L 95.960938 14.269531 L 95.960938 81.71875 L 0.0351562 81.71875 Z M 0.0351562 14.269531 " clip-rule="nonzero"/></clipPath></defs><g clip-path="url(#d6b7ae429b)"><path fill="#a80414" d="M 83.222656 14.304688 L 12.777344 14.304688 C 5.753906 14.304688 0.0351562 20.019531 0.0351562 27.046875 L 0.0351562 68.878906 C 0.0351562 75.90625 5.753906 81.621094 12.777344 81.621094 L 83.222656 81.621094 C 90.246094 81.621094 95.964844 75.90625 95.964844 68.878906 L 95.964844 27.046875 C 95.964844 20.019531 90.246094 14.304688 83.222656 14.304688 Z M 81.90625 22.210938 L 51 46.660156 C 49.234375 48.054688 46.765625 48.054688 45 46.660156 L 14.09375 22.210938 Z M 83.222656 73.714844 L 12.777344 73.714844 C 10.113281 73.714844 7.945312 71.546875 7.945312 68.878906 L 7.945312 27.433594 L 40.097656 52.863281 C 42.421875 54.703125 45.210938 55.625 48 55.625 C 50.789062 55.625 53.578125 54.703125 55.90625 52.863281 L 88.054688 27.433594 L 88.054688 68.878906 C 88.054688 71.546875 85.886719 73.714844 83.222656 73.714844 Z M 83.222656 73.714844 " fill-opacity="1" fill-rule="nonzero"/></g></svg>