<svg xmlns="http://www.w3.org/2000/svg" xmlns:xlink="http://www.w3.org/1999/xlink" width="128" zoomAndPan="magnify" viewBox="0 0 96 103.92" height="128" preserveAspectRatio="xMidYMid meet" version="1.0"><defs><clipPath id="ab9777d2ea"><path d="M 2.199219 2.328125 L 93.628906 2.328125 L 93.628906 93.757812 L 2.199219 93.757812 Z M 2.199219 2.328125 " clip-rule="nonzero"/></clipPath></defs><g clip-path="url(#ab9777d2ea)"><path fill="#a80414" d="M 93.804688 48.132812 C 93.804688 22.832031 73.296875 2.328125 48.003906 2.328125 C 22.707031 2.328125 2.199219 22.832031 2.199219 48.132812 C 2.199219 69.613281 16.984375 87.640625 36.9375 92.589844 L 36.9375 62.132812 L 27.488281 62.132812 L 27.488281 48.132812 L 36.9375 48.132812 L 36.9375 42.101562 C 36.9375 26.511719 43.992188 19.285156 59.296875 19.285156 C 62.199219 19.285156 67.207031 19.851562 69.253906 20.425781 L 69.253906 33.113281 C 68.171875 32.996094 66.292969 32.9375 63.960938 32.9375 C 56.453125 32.9375 53.546875 35.785156 53.546875 43.179688 L 53.546875 48.128906 L 68.507812 48.128906 L 65.9375 62.128906 L 53.546875 62.128906 L 53.546875 93.597656 C 76.230469 90.859375 93.804688 71.546875 93.804688 48.128906 Z M 93.804688 48.132812 " fill-opacity="1" fill-rule="nonzero"/></g></svg>