<svg xmlns="http://www.w3.org/2000/svg" xmlns:xlink="http://www.w3.org/1999/xlink" width="128" zoomAndPan="magnify" viewBox="0 0 96 103.92" height="128" preserveAspectRatio="xMidYMid meet" version="1.0"><defs><clipPath id="6f31196d19"><path d="M 0.0351562 0 L 95.960938 0 L 95.960938 95.925781 L 0.0351562 95.925781 Z M 0.0351562 0 " clip-rule="nonzero"/></clipPath><clipPath id="65eeeec638"><path d="M 3.234375 2.898438 L 92.765625 2.898438 L 92.765625 93.128906 L 3.234375 93.128906 Z M 3.234375 2.898438 " clip-rule="nonzero"/></clipPath><clipPath id="c32819ef1b"><path d="M 31.214844 2.898438 L 64.785156 2.898438 C 72.207031 2.898438 79.324219 5.84375 84.570312 11.09375 C 89.816406 16.339844 92.765625 23.457031 92.765625 30.875 L 92.765625 65.050781 C 92.765625 72.46875 89.816406 79.585938 84.570312 84.832031 C 79.324219 90.082031 72.207031 93.027344 64.785156 93.027344 L 31.214844 93.027344 C 23.792969 93.027344 16.675781 90.082031 11.429688 84.832031 C 6.183594 79.585938 3.234375 72.46875 3.234375 65.050781 L 3.234375 30.875 C 3.234375 23.457031 6.183594 16.339844 11.429688 11.09375 C 16.675781 5.84375 23.792969 2.898438 31.214844 2.898438 Z M 31.214844 2.898438 " clip-rule="nonzero"/></clipPath><clipPath id="16d49643ab"><path d="M 0.234375 0.898438 L 89.765625 0.898438 L 89.765625 91.046875 L 0.234375 91.046875 Z M 0.234375 0.898438 " clip-rule="nonzero"/></clipPath><clipPath id="d79bacec2e"><path d="M 28.214844 0.898438 L 61.785156 0.898438 C 69.207031 0.898438 76.324219 3.84375 81.570312 9.09375 C 86.816406 14.339844 89.765625 21.457031 89.765625 28.875 L 89.765625 63.050781 C 89.765625 70.46875 86.816406 77.585938 81.570312 82.832031 C 76.324219 88.082031 69.207031 91.027344 61.785156 91.027344 L 28.214844 91.027344 C 20.792969 91.027344 13.675781 88.082031 8.429688 82.832031 C 3.183594 77.585938 0.234375 70.46875 0.234375 63.050781 L 0.234375 28.875 C 0.234375 21.457031 3.183594 14.339844 8.429688 9.09375 C 13.675781 3.84375 20.792969 0.898438 28.214844 0.898438 Z M 28.214844 0.898438 " clip-rule="nonzero"/></clipPath><clipPath id="5b8075bc65"><rect x="0" width="90" y="0" height="92"/></clipPath><clipPath id="6635f4d1af"><path d="M 15.949219 16.027344 L 80.398438 16.027344 L 80.398438 79.730469 L 15.949219 79.730469 Z M 15.949219 16.027344 " clip-rule="nonzero"/></clipPath></defs><g clip-path="url(#6f31196d19)"><path fill="#ffffff" d="M 0.0351562 0 L 95.964844 0 L 95.964844 95.925781 L 0.0351562 95.925781 Z M 0.0351562 0 " fill-opacity="1" fill-rule="nonzero"/><path fill="#ffffff" d="M 0.0351562 0 L 95.964844 0 L 95.964844 95.925781 L 0.0351562 95.925781 Z M 0.0351562 0 " fill-opacity="1" fill-rule="nonzero"/></g><g clip-path="url(#65eeeec638)"><g clip-path="url(#c32819ef1b)"><g transform="matrix(1, 0, 0, 1, 3, 2)"><g clip-path="url(#5b8075bc65)"><g clip-path="url(#16d49643ab)"><g clip-path="url(#d79bacec2e)"><path fill="#a80414" d="M 0.234375 0.898438 L 89.765625 0.898438 L 89.765625 91.128906 L 0.234375 91.128906 Z M 0.234375 0.898438 " fill-opacity="1" fill-rule="nonzero"/></g></g></g></g></g></g><g clip-path="url(#6635f4d1af)"><path fill="#ffefe3" d="M 80.054688 48.082031 C 80.054688 30.378906 65.707031 16.027344 48.003906 16.027344 C 30.304688 16.027344 15.953125 30.378906 15.953125 48.082031 C 15.953125 63.113281 26.300781 75.726562 40.261719 79.191406 L 40.261719 57.878906 L 33.648438 57.878906 L 33.648438 48.082031 L 40.261719 48.082031 L 40.261719 43.863281 C 40.261719 32.953125 45.195312 27.894531 55.90625 27.894531 C 57.9375 27.894531 61.441406 28.292969 62.875 28.691406 L 62.875 37.570312 C 62.117188 37.488281 60.804688 37.449219 59.171875 37.449219 C 53.917969 37.449219 51.886719 39.441406 51.886719 44.617188 L 51.886719 48.078125 L 62.355469 48.078125 L 60.554688 57.875 L 51.886719 57.875 L 51.886719 79.898438 C 67.757812 77.980469 80.054688 64.464844 80.054688 48.078125 Z M 80.054688 48.082031 " fill-opacity="1" fill-rule="nonzero"/></g></svg>