<svg xmlns="http://www.w3.org/2000/svg" xmlns:xlink="http://www.w3.org/1999/xlink" width="128" zoomAndPan="magnify" viewBox="0 0 96 103.92" height="128" preserveAspectRatio="xMidYMid meet" version="1.0"><defs><clipPath id="e97b763470"><path d="M 0.0351562 0 L 95.960938 0 L 95.960938 95.925781 L 0.0351562 95.925781 Z M 0.0351562 0 " clip-rule="nonzero"/></clipPath><clipPath id="a0f4e1fd66"><path d="M 3.234375 2.898438 L 92.765625 2.898438 L 92.765625 93.128906 L 3.234375 93.128906 Z M 3.234375 2.898438 " clip-rule="nonzero"/></clipPath><clipPath id="f61826da23"><path d="M 31.214844 2.898438 L 64.785156 2.898438 C 72.207031 2.898438 79.324219 5.84375 84.570312 11.09375 C 89.816406 16.339844 92.765625 23.457031 92.765625 30.875 L 92.765625 65.050781 C 92.765625 72.46875 89.816406 79.585938 84.570312 84.832031 C 79.324219 90.082031 72.207031 93.027344 64.785156 93.027344 L 31.214844 93.027344 C 23.792969 93.027344 16.675781 90.082031 11.429688 84.832031 C 6.183594 79.585938 3.234375 72.46875 3.234375 65.050781 L 3.234375 30.875 C 3.234375 23.457031 6.183594 16.339844 11.429688 11.09375 C 16.675781 5.84375 23.792969 2.898438 31.214844 2.898438 Z M 31.214844 2.898438 " clip-rule="nonzero"/></clipPath><clipPath id="7fb10ed9ea"><path d="M 0.234375 0.898438 L 89.765625 0.898438 L 89.765625 91.046875 L 0.234375 91.046875 Z M 0.234375 0.898438 " clip-rule="nonzero"/></clipPath><clipPath id="25dc032028"><path d="M 28.214844 0.898438 L 61.785156 0.898438 C 69.207031 0.898438 76.324219 3.84375 81.570312 9.09375 C 86.816406 14.339844 89.765625 21.457031 89.765625 28.875 L 89.765625 63.050781 C 89.765625 70.46875 86.816406 77.585938 81.570312 82.832031 C 76.324219 88.082031 69.207031 91.027344 61.785156 91.027344 L 28.214844 91.027344 C 20.792969 91.027344 13.675781 88.082031 8.429688 82.832031 C 3.183594 77.585938 0.234375 70.46875 0.234375 63.050781 L 0.234375 28.875 C 0.234375 21.457031 3.183594 14.339844 8.429688 9.09375 C 13.675781 3.84375 20.792969 0.898438 28.214844 0.898438 Z M 28.214844 0.898438 " clip-rule="nonzero"/></clipPath><clipPath id="1225c15a11"><rect x="0" width="90" y="0" height="92"/></clipPath><clipPath id="c6d9de1d4c"><path d="M 18.222656 18.1875 L 77.425781 18.1875 L 77.425781 77.390625 L 18.222656 77.390625 Z M 18.222656 18.1875 " clip-rule="nonzero"/></clipPath></defs><g clip-path="url(#e97b763470)"><path fill="#ffffff" d="M 0.0351562 0 L 95.964844 0 L 95.964844 95.925781 L 0.0351562 95.925781 Z M 0.0351562 0 " fill-opacity="1" fill-rule="nonzero"/><path fill="#ffffff" d="M 0.0351562 0 L 95.964844 0 L 95.964844 95.925781 L 0.0351562 95.925781 Z M 0.0351562 0 " fill-opacity="1" fill-rule="nonzero"/></g><g clip-path="url(#a0f4e1fd66)"><g clip-path="url(#f61826da23)"><g transform="matrix(1, 0, 0, 1, 3, 2)"><g clip-path="url(#1225c15a11)"><g clip-path="url(#7fb10ed9ea)"><g clip-path="url(#25dc032028)"><path fill="#a80414" d="M 0.234375 0.898438 L 89.765625 0.898438 L 89.765625 91.128906 L 0.234375 91.128906 Z M 0.234375 0.898438 " fill-opacity="1" fill-rule="nonzero"/></g></g></g></g></g></g><g clip-path="url(#c6d9de1d4c)"><path fill="#ffefe3" d="M 35.65625 18.390625 C 32.492188 18.539062 30.328125 19.046875 28.4375 19.789062 C 26.480469 20.550781 24.824219 21.570312 23.171875 23.230469 C 21.519531 24.886719 20.507812 26.546875 19.75 28.507812 C 19.019531 30.402344 18.523438 32.566406 18.382812 35.734375 C 18.242188 38.90625 18.210938 39.917969 18.226562 48.003906 C 18.238281 56.082031 18.277344 57.097656 18.425781 60.273438 C 18.578125 63.441406 19.082031 65.601562 19.824219 67.492188 C 20.585938 69.449219 21.609375 71.105469 23.265625 72.757812 C 24.921875 74.410156 26.582031 75.421875 28.542969 76.179688 C 30.4375 76.910156 32.601562 77.410156 35.769531 77.546875 C 38.945312 77.6875 39.957031 77.71875 48.035156 77.703125 C 56.121094 77.6875 57.132812 77.652344 60.308594 77.5 C 63.472656 77.347656 65.632812 76.839844 67.527344 76.101562 C 69.484375 75.335938 71.140625 74.320312 72.792969 72.660156 C 74.441406 71.003906 75.457031 69.34375 76.214844 67.382812 C 76.945312 65.492188 77.445312 63.324219 77.582031 60.160156 C 77.71875 56.988281 77.753906 55.972656 77.738281 47.890625 C 77.726562 39.808594 77.6875 38.796875 77.535156 35.621094 C 77.386719 32.453125 76.878906 30.292969 76.140625 28.402344 C 75.375 26.441406 74.355469 24.789062 72.699219 23.136719 C 71.042969 21.488281 69.378906 20.46875 67.421875 19.714844 C 65.527344 18.984375 63.363281 18.484375 60.195312 18.347656 C 57.019531 18.207031 56.003906 18.175781 47.925781 18.1875 C 39.84375 18.203125 38.832031 18.238281 35.65625 18.390625 M 36.003906 72.1875 C 33.105469 72.0625 31.527344 71.578125 30.476562 71.175781 C 29.085938 70.636719 28.09375 69.992188 27.050781 68.957031 C 26.007812 67.917969 25.359375 66.925781 24.816406 65.539062 C 24.410156 64.492188 23.917969 62.917969 23.78125 60.015625 C 23.632812 56.878906 23.597656 55.9375 23.585938 47.992188 C 23.570312 40.046875 23.597656 39.105469 23.738281 35.96875 C 23.859375 33.066406 24.34375 31.492188 24.75 30.441406 C 25.289062 29.050781 25.929688 28.0625 26.96875 27.015625 C 28.007812 25.972656 29 25.328125 30.386719 24.78125 C 31.4375 24.375 33.007812 23.886719 35.910156 23.746094 C 39.046875 23.597656 39.988281 23.566406 47.933594 23.550781 C 55.878906 23.535156 56.820312 23.5625 59.960938 23.703125 C 62.859375 23.828125 64.4375 24.308594 65.484375 24.714844 C 66.875 25.253906 67.867188 25.894531 68.914062 26.933594 C 69.957031 27.972656 70.605469 28.960938 71.144531 30.351562 C 71.554688 31.398438 72.042969 32.976562 72.179688 35.871094 C 72.328125 39.011719 72.363281 39.953125 72.375 47.894531 C 72.390625 55.84375 72.363281 56.785156 72.226562 59.921875 C 72.097656 62.820312 71.617188 64.398438 71.210938 65.449219 C 70.671875 66.835938 70.03125 67.828125 68.992188 68.871094 C 67.949219 69.914062 66.964844 70.5625 65.570312 71.105469 C 64.527344 71.515625 62.949219 72.003906 60.050781 72.140625 C 56.914062 72.289062 55.972656 72.324219 48.027344 72.335938 C 40.082031 72.351562 39.140625 72.324219 36.003906 72.183594 M 60.265625 32.039062 C 60.269531 34.011719 61.871094 35.605469 63.839844 35.601562 C 65.8125 35.597656 67.410156 33.996094 67.40625 32.023438 C 67.402344 30.050781 65.800781 28.457031 63.828125 28.460938 C 61.855469 28.460938 60.261719 30.066406 60.261719 32.035156 M 32.699219 47.976562 C 32.71875 56.414062 39.574219 63.242188 48.007812 63.222656 C 56.449219 63.207031 63.277344 56.355469 63.261719 47.914062 C 63.242188 39.480469 56.390625 32.648438 47.949219 32.664062 C 39.511719 32.679688 32.683594 39.535156 32.699219 47.976562 M 38.0625 47.964844 C 38.050781 42.484375 42.484375 38.035156 47.960938 38.027344 C 53.4375 38.015625 57.890625 42.445312 57.902344 47.925781 C 57.914062 53.40625 53.476562 57.855469 48 57.863281 C 42.523438 57.875 38.070312 53.441406 38.0625 47.964844 " fill-opacity="1" fill-rule="nonzero"/></g></svg>