<svg xmlns="http://www.w3.org/2000/svg" xmlns:xlink="http://www.w3.org/1999/xlink" width="128" zoomAndPan="magnify" viewBox="0 0 96 103.92" height="128" preserveAspectRatio="xMidYMid meet" version="1.0"><defs><clipPath id="e6d809eed2"><path d="M 2.476562 2.441406 L 93.15625 2.441406 L 93.15625 93.121094 L 2.476562 93.121094 Z M 2.476562 2.441406 " clip-rule="nonzero"/></clipPath></defs><g clip-path="url(#e6d809eed2)"><path fill="#a80414" d="M 29.132812 2.753906 C 24.292969 2.980469 20.984375 3.757812 18.09375 4.890625 C 15.101562 6.054688 12.566406 7.617188 10.046875 10.152344 C 7.519531 12.683594 5.96875 15.222656 4.8125 18.222656 C 3.695312 21.121094 2.9375 24.425781 2.722656 29.273438 C 2.507812 34.121094 2.460938 35.671875 2.480469 48.03125 C 2.503906 60.386719 2.558594 61.9375 2.789062 66.792969 C 3.023438 71.632812 3.792969 74.9375 4.925781 77.832031 C 6.09375 80.824219 7.652344 83.355469 10.1875 85.878906 C 12.722656 88.40625 15.261719 89.953125 18.257812 91.113281 C 21.152344 92.230469 24.464844 92.996094 29.304688 93.203125 C 34.160156 93.417969 35.707031 93.464844 48.0625 93.441406 C 60.421875 93.417969 61.96875 93.363281 66.824219 93.132812 C 71.667969 92.898438 74.96875 92.125 77.863281 90.996094 C 80.855469 89.824219 83.390625 88.269531 85.914062 85.734375 C 88.433594 83.199219 89.988281 80.660156 91.144531 77.664062 C 92.265625 74.769531 93.027344 71.457031 93.238281 66.621094 C 93.449219 61.765625 93.5 60.214844 93.476562 47.859375 C 93.457031 35.503906 93.394531 33.957031 93.167969 29.101562 C 92.9375 24.253906 92.164062 20.953125 91.03125 18.058594 C 89.863281 15.066406 88.304688 12.535156 85.769531 10.007812 C 83.238281 7.488281 80.699219 5.929688 77.699219 4.777344 C 74.804688 3.65625 71.496094 2.894531 66.652344 2.683594 C 61.796875 2.46875 60.246094 2.421875 47.890625 2.445312 C 35.535156 2.464844 33.988281 2.523438 29.132812 2.753906 M 29.664062 85.007812 C 25.230469 84.816406 22.820312 84.078125 21.214844 83.460938 C 19.085938 82.636719 17.570312 81.652344 15.972656 80.070312 C 14.378906 78.476562 13.390625 76.964844 12.558594 74.847656 C 11.9375 73.242188 11.1875 70.835938 10.976562 66.398438 C 10.75 61.601562 10.699219 60.164062 10.675781 48.011719 C 10.65625 35.867188 10.699219 34.425781 10.90625 29.628906 C 11.097656 25.195312 11.839844 22.785156 12.457031 21.179688 C 13.28125 19.054688 14.261719 17.539062 15.847656 15.941406 C 17.4375 14.34375 18.953125 13.359375 21.074219 12.527344 C 22.679688 11.898438 25.085938 11.152344 29.519531 10.945312 C 34.320312 10.714844 35.753906 10.667969 47.902344 10.644531 C 60.054688 10.617188 61.496094 10.660156 66.292969 10.875 C 70.726562 11.070312 73.136719 11.800781 74.742188 12.421875 C 76.867188 13.246094 78.386719 14.226562 79.980469 15.816406 C 81.578125 17.40625 82.566406 18.917969 83.394531 21.042969 C 84.019531 22.644531 84.765625 25.054688 84.976562 29.484375 C 85.203125 34.28125 85.257812 35.722656 85.277344 47.867188 C 85.300781 60.015625 85.257812 61.457031 85.046875 66.25 C 84.851562 70.6875 84.117188 73.101562 83.5 74.703125 C 82.675781 76.828125 81.691406 78.34375 80.101562 79.941406 C 78.511719 81.53125 77 82.523438 74.875 83.355469 C 73.273438 83.980469 70.863281 84.726562 66.433594 84.9375 C 61.636719 85.164062 60.199219 85.214844 48.046875 85.238281 C 35.902344 85.257812 34.460938 85.214844 29.660156 85.003906 M 66.761719 23.621094 C 66.765625 26.636719 69.21875 29.074219 72.226562 29.066406 C 75.242188 29.0625 77.683594 26.613281 77.679688 23.597656 C 77.675781 20.585938 75.222656 18.144531 72.207031 18.148438 C 69.191406 18.152344 66.75 20.605469 66.757812 23.617188 M 24.613281 47.988281 C 24.640625 60.890625 35.121094 71.328125 48.019531 71.304688 C 60.925781 71.277344 71.367188 60.800781 71.339844 47.898438 C 71.316406 34.996094 60.832031 24.554688 47.929688 24.578125 C 35.03125 24.601562 24.589844 35.082031 24.613281 47.988281 M 32.808594 47.96875 C 32.796875 39.59375 39.570312 32.789062 47.945312 32.777344 C 56.324219 32.757812 63.128906 39.535156 63.144531 47.914062 C 63.164062 56.289062 56.382812 63.09375 48.007812 63.109375 C 39.632812 63.125 32.828125 56.34375 32.8125 47.96875 " fill-opacity="1" fill-rule="nonzero"/></g></svg>