<svg xmlns="http://www.w3.org/2000/svg" xmlns:xlink="http://www.w3.org/1999/xlink" width="128" zoomAndPan="magnify" viewBox="0 0 96 103.92" height="128" preserveAspectRatio="xMidYMid meet" version="1.0"><defs><clipPath id="ed8b9916a6"><path d="M 0.0351562 0 L 95.960938 0 L 95.960938 95.925781 L 0.0351562 95.925781 Z M 0.0351562 0 " clip-rule="nonzero"/></clipPath><clipPath id="67171a78f2"><path d="M 3.234375 2.898438 L 92.765625 2.898438 L 92.765625 93.128906 L 3.234375 93.128906 Z M 3.234375 2.898438 " clip-rule="nonzero"/></clipPath><clipPath id="52d661433d"><path d="M 31.214844 2.898438 L 64.785156 2.898438 C 72.207031 2.898438 79.324219 5.84375 84.570312 11.09375 C 89.816406 16.339844 92.765625 23.457031 92.765625 30.875 L 92.765625 65.050781 C 92.765625 72.46875 89.816406 79.585938 84.570312 84.832031 C 79.324219 90.082031 72.207031 93.027344 64.785156 93.027344 L 31.214844 93.027344 C 23.792969 93.027344 16.675781 90.082031 11.429688 84.832031 C 6.183594 79.585938 3.234375 72.46875 3.234375 65.050781 L 3.234375 30.875 C 3.234375 23.457031 6.183594 16.339844 11.429688 11.09375 C 16.675781 5.84375 23.792969 2.898438 31.214844 2.898438 Z M 31.214844 2.898438 " clip-rule="nonzero"/></clipPath><clipPath id="1a30e12e3b"><path d="M 0.234375 0.898438 L 89.765625 0.898438 L 89.765625 91.046875 L 0.234375 91.046875 Z M 0.234375 0.898438 " clip-rule="nonzero"/></clipPath><clipPath id="6d83effc4e"><path d="M 28.214844 0.898438 L 61.785156 0.898438 C 69.207031 0.898438 76.324219 3.84375 81.570312 9.09375 C 86.816406 14.339844 89.765625 21.457031 89.765625 28.875 L 89.765625 63.050781 C 89.765625 70.46875 86.816406 77.585938 81.570312 82.832031 C 76.324219 88.082031 69.207031 91.027344 61.785156 91.027344 L 28.214844 91.027344 C 20.792969 91.027344 13.675781 88.082031 8.429688 82.832031 C 3.183594 77.585938 0.234375 70.46875 0.234375 63.050781 L 0.234375 28.875 C 0.234375 21.457031 3.183594 14.339844 8.429688 9.09375 C 13.675781 3.84375 20.792969 0.898438 28.214844 0.898438 Z M 28.214844 0.898438 " clip-rule="nonzero"/></clipPath><clipPath id="9e4ab94811"><rect x="0" width="90" y="0" height="92"/></clipPath><clipPath id="a29cf2a8d8"><path d="M 18.980469 18.667969 L 76.6875 18.667969 L 76.6875 77 L 18.980469 77 Z M 18.980469 18.667969 " clip-rule="nonzero"/></clipPath></defs><g clip-path="url(#ed8b9916a6)"><path fill="#ffffff" d="M 0.0351562 0 L 95.964844 0 L 95.964844 95.925781 L 0.0351562 95.925781 Z M 0.0351562 0 " fill-opacity="1" fill-rule="nonzero"/><path fill="#ffffff" d="M 0.0351562 0 L 95.964844 0 L 95.964844 95.925781 L 0.0351562 95.925781 Z M 0.0351562 0 " fill-opacity="1" fill-rule="nonzero"/></g><g clip-path="url(#67171a78f2)"><g clip-path="url(#52d661433d)"><g transform="matrix(1, 0, 0, 1, 3, 2)"><g clip-path="url(#9e4ab94811)"><g clip-path="url(#1a30e12e3b)"><g clip-path="url(#6d83effc4e)"><path fill="#a80414" d="M 0.234375 0.898438 L 89.765625 0.898438 L 89.765625 91.128906 L 0.234375 91.128906 Z M 0.234375 0.898438 " fill-opacity="1" fill-rule="nonzero"/></g></g></g></g></g></g><g clip-path="url(#a29cf2a8d8)"><path fill="#ffefe3" d="M 68.460938 68.195312 L 59.855469 68.195312 L 59.855469 54.722656 C 59.855469 51.511719 59.796875 47.371094 55.382812 47.371094 C 50.964844 47.371094 50.214844 50.875 50.214844 54.488281 L 50.214844 68.195312 L 41.613281 68.195312 L 41.613281 40.484375 L 49.871094 40.484375 L 49.871094 44.273438 L 49.988281 44.273438 C 51.671875 41.390625 54.804688 39.671875 58.136719 39.796875 C 66.859375 39.796875 68.464844 45.53125 68.464844 52.996094 L 68.464844 68.195312 Z M 31.898438 36.699219 C 29.140625 36.699219 26.90625 34.464844 26.90625 31.707031 C 26.90625 28.949219 29.140625 26.714844 31.894531 26.714844 C 34.652344 26.714844 36.890625 28.949219 36.890625 31.703125 C 36.890625 34.460938 34.65625 36.699219 31.898438 36.699219 M 36.203125 68.195312 L 27.589844 68.195312 L 27.589844 40.484375 L 36.203125 40.484375 Z M 72.75 18.71875 L 23.265625 18.71875 C 20.925781 18.695312 19.007812 20.570312 18.980469 22.90625 L 18.980469 72.597656 C 19.007812 74.9375 20.925781 76.8125 23.265625 76.785156 L 72.75 76.785156 C 75.09375 76.816406 77.019531 74.941406 77.050781 72.597656 L 77.050781 22.902344 C 77.019531 20.558594 75.09375 18.6875 72.75 18.71875 " fill-opacity="1" fill-rule="nonzero"/></g></svg>