<svg xmlns="http://www.w3.org/2000/svg" xmlns:xlink="http://www.w3.org/1999/xlink" width="128" zoomAndPan="magnify" viewBox="0 0 96 103.92" height="128" preserveAspectRatio="xMidYMid meet" version="1.0"><defs><clipPath id="ea6fe90ff5"><path d="M 1.761719 2 L 93.941406 2 L 93.941406 94.171875 L 1.761719 94.171875 Z M 1.761719 2 " clip-rule="nonzero"/></clipPath></defs><g clip-path="url(#ea6fe90ff5)"><path fill="#a80414" d="M 80.253906 80.554688 L 66.605469 80.554688 L 66.605469 59.179688 C 66.605469 54.085938 66.515625 47.523438 59.507812 47.523438 C 52.5 47.523438 51.3125 53.078125 51.3125 58.8125 L 51.3125 80.554688 L 37.664062 80.554688 L 37.664062 36.597656 L 50.769531 36.597656 L 50.769531 42.605469 L 50.949219 42.605469 C 53.621094 38.035156 58.589844 35.308594 63.878906 35.503906 C 77.710938 35.503906 80.261719 44.605469 80.261719 56.441406 L 80.261719 80.554688 Z M 22.257812 30.589844 C 17.882812 30.589844 14.332031 27.046875 14.332031 22.671875 C 14.332031 18.296875 17.878906 14.75 22.25 14.75 C 26.625 14.75 30.175781 18.292969 30.175781 22.667969 C 30.175781 27.042969 26.628906 30.589844 22.257812 30.589844 M 29.085938 80.554688 L 15.417969 80.554688 L 15.417969 36.597656 L 29.085938 36.597656 Z M 87.058594 2.070312 L 8.5625 2.070312 C 4.851562 2.03125 1.804688 5.003906 1.761719 8.710938 L 1.761719 87.535156 C 1.804688 91.25 4.847656 94.222656 8.5625 94.183594 L 87.058594 94.183594 C 90.777344 94.230469 93.832031 91.253906 93.882812 87.535156 L 93.882812 8.707031 C 93.832031 4.988281 90.777344 2.019531 87.058594 2.066406 " fill-opacity="1" fill-rule="nonzero"/></g></svg>