<svg xmlns="http://www.w3.org/2000/svg" xmlns:xlink="http://www.w3.org/1999/xlink" width="128" zoomAndPan="magnify" viewBox="0 0 96 103.92" height="128" preserveAspectRatio="xMidYMid meet" version="1.0"><defs><clipPath id="3deed843f1"><path d="M 0.0351562 0 L 95.960938 0 L 95.960938 95.925781 L 0.0351562 95.925781 Z M 0.0351562 0 " clip-rule="nonzero"/></clipPath><clipPath id="06a64bcb70"><path d="M 3.234375 2.898438 L 92.765625 2.898438 L 92.765625 93.128906 L 3.234375 93.128906 Z M 3.234375 2.898438 " clip-rule="nonzero"/></clipPath><clipPath id="6ede25e5e1"><path d="M 31.214844 2.898438 L 64.785156 2.898438 C 72.207031 2.898438 79.324219 5.84375 84.570312 11.09375 C 89.816406 16.339844 92.765625 23.457031 92.765625 30.875 L 92.765625 65.050781 C 92.765625 72.46875 89.816406 79.585938 84.570312 84.832031 C 79.324219 90.082031 72.207031 93.027344 64.785156 93.027344 L 31.214844 93.027344 C 23.792969 93.027344 16.675781 90.082031 11.429688 84.832031 C 6.183594 79.585938 3.234375 72.46875 3.234375 65.050781 L 3.234375 30.875 C 3.234375 23.457031 6.183594 16.339844 11.429688 11.09375 C 16.675781 5.84375 23.792969 2.898438 31.214844 2.898438 Z M 31.214844 2.898438 " clip-rule="nonzero"/></clipPath><clipPath id="86ca1532b1"><path d="M 0.234375 0.898438 L 89.765625 0.898438 L 89.765625 91.046875 L 0.234375 91.046875 Z M 0.234375 0.898438 " clip-rule="nonzero"/></clipPath><clipPath id="27858b51b9"><path d="M 28.214844 0.898438 L 61.785156 0.898438 C 69.207031 0.898438 76.324219 3.84375 81.570312 9.09375 C 86.816406 14.339844 89.765625 21.457031 89.765625 28.875 L 89.765625 63.050781 C 89.765625 70.46875 86.816406 77.585938 81.570312 82.832031 C 76.324219 88.082031 69.207031 91.027344 61.785156 91.027344 L 28.214844 91.027344 C 20.792969 91.027344 13.675781 88.082031 8.429688 82.832031 C 3.183594 77.585938 0.234375 70.46875 0.234375 63.050781 L 0.234375 28.875 C 0.234375 21.457031 3.183594 14.339844 8.429688 9.09375 C 13.675781 3.84375 20.792969 0.898438 28.214844 0.898438 Z M 28.214844 0.898438 " clip-rule="nonzero"/></clipPath><clipPath id="3cf4f0ca85"><rect x="0" width="90" y="0" height="92"/></clipPath></defs><g clip-path="url(#3deed843f1)"><path fill="#ffffff" d="M 0.0351562 0 L 95.964844 0 L 95.964844 95.925781 L 0.0351562 95.925781 Z M 0.0351562 0 " fill-opacity="1" fill-rule="nonzero"/><path fill="#ffffff" d="M 0.0351562 0 L 95.964844 0 L 95.964844 95.925781 L 0.0351562 95.925781 Z M 0.0351562 0 " fill-opacity="1" fill-rule="nonzero"/></g><g clip-path="url(#06a64bcb70)"><g clip-path="url(#6ede25e5e1)"><g transform="matrix(1, 0, 0, 1, 3, 2)"><g clip-path="url(#3cf4f0ca85)"><g clip-path="url(#86ca1532b1)"><g clip-path="url(#27858b51b9)"><path fill="#a80414" d="M 0.234375 0.898438 L 89.765625 0.898438 L 89.765625 91.128906 L 0.234375 91.128906 Z M 0.234375 0.898438 " fill-opacity="1" fill-rule="nonzero"/></g></g></g></g></g></g><path fill="#ffefe3" d="M 49.167969 21.136719 C 52.101562 21.089844 55.015625 21.113281 57.921875 21.089844 C 58.019531 24.730469 59.496094 28.003906 61.84375 30.429688 L 61.839844 30.425781 C 64.371094 32.703125 67.660156 34.179688 71.285156 34.429688 L 71.335938 34.433594 L 71.335938 43.457031 C 67.910156 43.371094 64.6875 42.582031 61.785156 41.222656 L 61.929688 41.285156 C 60.527344 40.609375 59.339844 39.914062 58.210938 39.140625 L 58.304688 39.203125 C 58.28125 45.738281 58.324219 52.277344 58.257812 58.792969 C 58.074219 62.109375 56.96875 65.140625 55.199219 67.667969 L 55.234375 67.609375 C 52.277344 71.851562 47.480469 74.632812 42.03125 74.796875 L 42.003906 74.796875 C 41.785156 74.808594 41.523438 74.8125 41.261719 74.8125 C 38.164062 74.8125 35.265625 73.949219 32.796875 72.449219 L 32.871094 72.492188 C 28.375 69.789062 25.277344 65.160156 24.703125 59.78125 L 24.695312 59.707031 C 24.652344 58.589844 24.628906 57.46875 24.675781 56.371094 C 25.554688 47.808594 32.726562 41.1875 41.445312 41.1875 C 42.425781 41.1875 43.386719 41.269531 44.320312 41.429688 L 44.21875 41.417969 C 44.265625 44.730469 44.128906 48.042969 44.128906 51.355469 C 43.371094 51.082031 42.496094 50.921875 41.585938 50.921875 C 38.238281 50.921875 35.390625 53.0625 34.339844 56.046875 L 34.324219 56.101562 C 34.085938 56.867188 33.945312 57.746094 33.945312 58.65625 C 33.945312 59.027344 33.96875 59.390625 34.011719 59.75 L 34.007812 59.707031 C 34.605469 63.371094 37.746094 66.136719 41.535156 66.136719 C 41.644531 66.136719 41.753906 66.136719 41.859375 66.132812 L 41.84375 66.132812 C 44.464844 66.050781 46.738281 64.640625 48.027344 62.558594 L 48.042969 62.527344 C 48.523438 61.859375 48.851562 61.054688 48.960938 60.179688 L 48.960938 60.152344 C 49.1875 56.144531 49.097656 52.160156 49.117188 48.152344 C 49.140625 39.128906 49.097656 30.128906 49.164062 21.128906 Z M 49.167969 21.136719 " fill-opacity="1" fill-rule="nonzero"/></svg>