<svg xmlns="http://www.w3.org/2000/svg" xmlns:xlink="http://www.w3.org/1999/xlink" width="128" zoomAndPan="magnify" viewBox="0 0 96 103.92" height="128" preserveAspectRatio="xMidYMid meet" version="1.0"><path fill="#a80414" d="M 49.929688 3.796875 C 54.757812 3.722656 59.550781 3.761719 64.34375 3.722656 C 64.503906 9.714844 66.933594 15.105469 70.800781 19.101562 L 70.792969 19.09375 C 74.957031 22.84375 80.371094 25.273438 86.34375 25.6875 L 86.425781 25.695312 L 86.425781 40.546875 C 80.785156 40.40625 75.480469 39.105469 70.699219 36.871094 L 70.941406 36.972656 C 68.628906 35.859375 66.671875 34.71875 64.816406 33.441406 L 64.96875 33.542969 C 64.933594 44.308594 65.003906 55.070312 64.894531 65.796875 C 64.589844 71.261719 62.773438 76.246094 59.859375 80.410156 L 59.917969 80.316406 C 55.046875 87.296875 47.152344 91.878906 38.175781 92.148438 L 38.132812 92.148438 C 37.773438 92.167969 37.34375 92.175781 36.914062 92.175781 C 31.808594 92.175781 27.039062 90.753906 22.976562 88.285156 L 23.09375 88.351562 C 15.695312 83.902344 10.59375 76.285156 9.648438 67.425781 L 9.636719 67.304688 C 9.5625 65.460938 9.527344 63.617188 9.601562 61.8125 C 11.046875 47.714844 22.859375 36.8125 37.214844 36.8125 C 38.828125 36.8125 40.410156 36.949219 41.945312 37.210938 L 41.78125 37.1875 C 41.855469 42.644531 41.632812 48.101562 41.632812 53.554688 C 40.386719 53.101562 38.945312 52.839844 37.445312 52.839844 C 31.933594 52.839844 27.246094 56.363281 25.511719 61.28125 L 25.484375 61.367188 C 25.09375 62.628906 24.867188 64.074219 24.867188 65.574219 C 24.867188 66.183594 24.90625 66.785156 24.976562 67.375 L 24.96875 67.304688 C 25.949219 73.339844 31.121094 77.894531 37.363281 77.894531 C 37.542969 77.894531 37.71875 77.890625 37.894531 77.882812 L 37.867188 77.882812 C 42.183594 77.75 45.929688 75.429688 48.046875 72 L 48.078125 71.945312 C 48.867188 70.847656 49.40625 69.519531 49.585938 68.078125 L 49.589844 68.039062 C 49.957031 61.4375 49.808594 54.878906 49.84375 48.28125 C 49.878906 33.425781 49.808594 18.605469 49.917969 3.789062 Z M 49.929688 3.796875 " fill-opacity="1" fill-rule="nonzero"/></svg>