<svg xmlns="http://www.w3.org/2000/svg" xmlns:xlink="http://www.w3.org/1999/xlink" width="128" zoomAndPan="magnify" viewBox="0 0 96 103.92" height="128" preserveAspectRatio="xMidYMid meet" version="1.0"><defs><clipPath id="007f8ec7bd"><path d="M 0.0351562 14 L 95.960938 14 L 95.960938 82 L 0.0351562 82 Z M 0.0351562 14 " clip-rule="nonzero"/></clipPath></defs><g clip-path="url(#007f8ec7bd)"><path fill="#a80414" d="M 76.039062 14.023438 L 19.960938 14.023438 C 8.957031 14.023438 0.0351562 22.941406 0.0351562 33.945312 L 0.0351562 61.980469 C 0.0351562 72.984375 8.957031 81.902344 19.960938 81.902344 L 76.039062 81.902344 C 87.042969 81.902344 95.964844 72.984375 95.964844 61.980469 L 95.964844 33.945312 C 95.964844 22.941406 87.042969 14.023438 76.039062 14.023438 Z M 62.566406 49.328125 L 36.335938 61.835938 C 35.636719 62.171875 34.828125 61.660156 34.828125 60.886719 L 34.828125 35.085938 C 34.828125 34.300781 35.660156 33.789062 36.359375 34.144531 L 62.589844 47.4375 C 63.371094 47.832031 63.355469 48.949219 62.566406 49.328125 Z M 62.566406 49.328125 " fill-opacity="1" fill-rule="nonzero"/></g></svg>